<svg xmlns="http://www.w3.org/2000/svg" viewBox="0 0 64 62.2"><title>business trip</title><g id="Layer_2" data-name="Layer 2"><g id="business_trip" data-name="business trip"><path d="M63.84,49.6,57.24,39.53l3.5-6.36c1.87-3.46.61-6.56-1.61-7.82h0a4.89,4.89,0,0,0-2-.57V19.2a7.34,7.34,0,0,0-7.33-7.33h-4.4V6.76h0A6.78,6.78,0,0,0,38.61,0H17.23a6.78,6.78,0,0,0-6.77,6.76h0v5.1H7.33A7.34,7.34,0,0,0,0,19.2V45.06A7.34,7.34,0,0,0,7.33,52.4H32.76a1,1,0,0,0,.76,1l5.25,1.23A3.64,3.64,0,0,0,40,59a2.58,2.58,0,0,0,.32.18l.28.16a3.66,3.66,0,0,0,4.35-1.23l3.8,3.81a1,1,0,0,0,.71.29h.13a1,1,0,0,0,.74-.49l2-3.5a1,1,0,0,0,0-1L49,52l2.88-4.28,7.84,7.62a1,1,0,0,0,1.57-.22l2.55-4.46A1,1,0,0,0,63.84,49.6ZM12.48,13.87h7.91v3.31H12.48Zm8.91-2H18.05V8.32a1,1,0,0,1,1-1H36.79a1,1,0,0,1,1,1v3.55H21.39Zm14.09,2h7.91v3.31H35.48ZM13.86,3.41A4.74,4.74,0,0,1,17.23,2H38.61a4.77,4.77,0,0,1,4.76,4.76h0v5.1H39.82V8.32a3,3,0,0,0-3-3H19.07a3,3,0,0,0-3,3v3.55H12.48V6.76A4.71,4.71,0,0,1,13.86,3.41ZM7.33,13.87h3.14v4.31a1,1,0,0,0,1,1h9.91a1,1,0,0,0,1-1V13.87H33.48v4.31a1,1,0,0,0,1,1h9.91a1,1,0,0,0,1-1V13.87h4.39a5.34,5.34,0,0,1,5.33,5.33V25a6.47,6.47,0,0,0-3.5,3.07l-3.56,6.32-12-.31a1,1,0,0,0-.9.52L33,38.5H2V19.2A5.34,5.34,0,0,1,7.33,13.87ZM2,45.06V40.5H33.14a1,1,0,0,0,.18.09l10.61,2.65-2.12,4.7-6.14-.06a1,1,0,0,0-.89.53l-1.06,2H7.33A5.34,5.34,0,0,1,2,45.06ZM60.22,53l-7.77-7.56a1,1,0,0,0-1.53.16L47,51.4a1,1,0,0,0,0,1.09l3.31,5.23-1.08,1.85L45.5,55.84a1,1,0,0,0-.71-.29h-.1A1,1,0,0,0,44,56l-.17.27c-.45.8-1.51,1.68-2.3,1.29l-.13-.07-.3-.17c-.77-.48-.57-1.85-.1-2.71l.1-.22A1,1,0,0,0,40.38,53l-5.14-1.2,1-1.89,6.19.06a1,1,0,0,0,.92-.59L46.24,43a1,1,0,0,0-.67-1.38L35.05,39l1.54-2.84,12,.31a1.07,1.07,0,0,0,.9-.51l3.85-6.83c1.38-2.41,3.45-2.72,4.79-2s2.15,2.69.83,5.12L55.2,39.1a1,1,0,0,0,0,1l6.59,10.05Z" style="fill:#365180"/></g></g></svg>